<svg aria-hidden="true" style="position: absolute; width: 0; height: 0; overflow: hidden;"
    version="1.1" xmlns="http://www.w3.org/2000/svg" xmlns:xlink="http://www.w3.org/1999/xlink">
<defs>
<symbol id="icon-like" viewBox="0 0 32 32">
<path d="M15.982 29.997l-13.365-13.365c-1.508-1.5-2.441-3.576-2.441-5.87 0-0.008 0-0.016 0-0.024v0.001c-0-0.007-0-0.015-0-0.023 0-2.294 0.933-4.371 2.441-5.87l0-0c3.25-3.249 8.537-3.249 11.787 0l1.579 1.579 1.579-1.579c3.249-3.249 8.536-3.25 11.787 0s3.25 8.537 0 11.787zM8.51 4.514c-1.595 0-3.189 0.607-4.403 1.821-1.127 1.12-1.824 2.671-1.824 4.384 0 0.007 0 0.013 0 0.020v-0.001c0 1.664 0.648 3.227 1.824 4.403l11.875 11.875 11.875-11.875c2.428-2.428 2.428-6.378 0-8.806s-6.379-2.427-8.806 0l-3.069 3.069-3.069-3.069c-1.124-1.125-2.677-1.821-4.393-1.821-0.004 0-0.007 0-0.011 0h0.001z"></path>
</symbol>
<symbol id="icon-comments" viewBox="0 0 32 32">
<path d="M30.734 31.788c-0.129 0-0.259-0.024-0.384-0.072l-5.977-2.338c-2.514 1.579-5.403 2.41-8.392 2.41-8.716 0-15.806-7.091-15.806-15.806s7.091-15.806 15.806-15.806 15.806 7.091 15.806 15.806c0 2.989-0.831 5.878-2.41 8.392l2.338 5.977c0.046 0.114 0.072 0.246 0.072 0.384 0 0.582-0.472 1.054-1.054 1.054-0 0-0 0-0 0v0zM15.982 2.283c-7.554 0-13.699 6.145-13.699 13.699s6.145 13.699 13.699 13.699c0.007 0 0.015 0 0.023 0 2.858 0 5.511-0.88 7.702-2.383l-0.046 0.030c0.166-0.114 0.371-0.182 0.592-0.182 0.138 0 0.27 0.026 0.39 0.075l-0.007-0.003 4.24 1.658-1.658-4.24c-0.046-0.114-0.072-0.245-0.072-0.383 0-0.221 0.068-0.426 0.184-0.595l-0.002 0.004c1.474-2.145 2.354-4.798 2.354-7.656 0-0.008 0-0.016-0-0.025v0.001c0-7.554-6.145-13.699-13.699-13.699z"></path>
</symbol>
<symbol id="icon-downloads" viewBox="0 0 32 32">
<path d="M23.656 14.965c-0.304-0.257-0.7-0.414-1.132-0.414-0.537 0-1.018 0.241-1.341 0.622l-0.002 0.003-3.443 4.083v-17.325c0-0.97-0.786-1.756-1.756-1.756s-1.756 0.786-1.756 1.756v0 17.325l-3.443-4.083c-0.324-0.369-0.796-0.601-1.323-0.601-0.97 0-1.757 0.786-1.757 1.757 0 0.422 0.149 0.809 0.397 1.112l-0.002-0.003 6.542 7.757c0.026 0.031 0.055 0.059 0.083 0.088q0.014 0.015 0.029 0.031c0.081 0.080 0.17 0.151 0.266 0.214l0.007 0.004q0.121 0.079 0.254 0.138 0.026 0.011 0.053 0.021c0.080 0.034 0.175 0.064 0.274 0.086l0.012 0.002q0.019 0.003 0.037 0.006c0.107 0.020 0.217 0.033 0.328 0.033s0.221-0.013 0.328-0.033c0.012-0.002 0.025-0.003 0.037-0.006 0.11-0.024 0.205-0.055 0.297-0.093l-0.012 0.004c0.018-0.007 0.036-0.014 0.054-0.022 0.115-0.051 0.214-0.108 0.306-0.173l-0.005 0.004q0.119-0.083 0.225-0.185 0.015-0.016 0.030-0.032c0.028-0.029 0.057-0.057 0.082-0.087l6.542-7.757c0.258-0.304 0.414-0.7 0.414-1.133 0-0.537-0.241-1.018-0.621-1.34l-0.003-0.002z"></path>
<path d="M28.168 31.788h-24.371c-0.97 0-1.756-0.786-1.756-1.756v0-7.149c0-0.917 0.671-1.736 1.583-1.823 0.052-0.005 0.112-0.009 0.173-0.009 0.97 0 1.756 0.786 1.756 1.756 0 0 0 0 0 0v0 5.103c0 0.202 0.163 0.365 0.365 0.365h20.129c0.202 0 0.365-0.163 0.365-0.365v-5.027c0-0.917 0.671-1.736 1.584-1.823 0.052-0.005 0.112-0.009 0.172-0.009 0.97 0 1.756 0.786 1.756 1.756 0 0 0 0 0 0v-0 7.224c0 0.97-0.786 1.756-1.756 1.756-0 0-0 0-0 0h0z"></path>
</symbol>
<symbol id="icon-views" viewBox="0 0 32 32">
<path d="M15.982 25.91c-5.223 0-10.458-3.113-15.563-9.254-0.151-0.181-0.243-0.417-0.243-0.674s0.092-0.492 0.245-0.675l-0.001 0.002c5.104-6.14 10.34-9.254 15.563-9.254s10.458 3.113 15.563 9.254c0.151 0.181 0.244 0.417 0.244 0.674s-0.092 0.493-0.245 0.675l0.001-0.002c-5.104 6.14-10.34 9.254-15.563 9.254zM2.611 15.982c4.495 5.19 8.99 7.82 13.371 7.82s8.876-2.63 13.371-7.82c-4.495-5.19-8.99-7.82-13.371-7.82s-8.876 2.63-13.371 7.82z"></path>
<path d="M15.982 21.953c-3.293 0-5.971-2.679-5.971-5.971s2.679-5.971 5.971-5.971 5.971 2.679 5.971 5.971-2.679 5.971-5.971 5.971zM15.982 12.118c-2.13 0-3.864 1.733-3.864 3.864s1.733 3.864 3.864 3.864 3.864-1.733 3.864-3.864-1.733-3.864-3.864-3.864z"></path>
</symbol>
<symbol id="icon-left" viewBox="0 0 36 32">
      <path fill="#ababab"
                d="M16.96 31.46a1.542 1.542 0 0 1-1.06-.42l-14-14a1.5 1.5 0 0 1 0-2.12l14-14a1.5 1.5 0 0 1 2.12 0 1.48 1.48 0 0 1 0 2.12L5.1 16 18 28.9a1.48 1.48 0 0 1 0 2.12 1.422 1.422 0 0 1-1.04.44z"
                style="fill:var(--color1, #ababab)" />
      <path fill="#ababab" d="M33.04 17.5h-30a1.5 1.5 0 0 1 0-3h30a1.5 1.5 0 0 1 0 3z"
                style="fill:var(--color1, #ababab)" />
    </symbol>
</defs>
</svg>
